grf
version=1
nRows=53
nColumns=19
inDegrees=yes
endheader
time	ground_force_1_vx	ground_force_1_vy	ground_force_1_vz	ground_force_1_px	ground_force_1_py	ground_force_1_pz	ground_moment_1_mx	ground_moment_1_my	ground_moment_1_mz	ground_force_2_vx	ground_force_2_vy	ground_force_2_vz	ground_force_2_px	ground_force_2_py	ground_force_2_pz	ground_moment_2_mx	ground_moment_2_my	ground_moment_2_mz
1.637000	2.011345	1393.324463	-475.211060	0.164830	0.000000	-0.730288	0.000000	10.948447	0.000000	-5.099009	1364.984741	498.843628	0.180970	0.000000	-1.571479	0.000000	-7.147432	-0.000000
1.638000	4.889637	1398.146484	-475.091248	0.164912	0.000000	-0.732215	0.000000	10.093999	-0.000000	-4.898847	1368.835083	497.755280	0.182286	0.000000	-1.573838	0.000000	-6.356652	-0.000000
1.639000	4.893063	1401.804321	-475.576294	0.165812	0.000000	-0.733066	0.000000	9.608833	0.000000	-4.695923	1359.425781	497.032196	0.181678	0.000000	-1.573040	0.000000	-6.497566	-0.000000
1.640000	5.133007	1404.867798	-475.375000	0.165442	0.000000	-0.733077	0.000000	9.850674	0.000000	-5.381720	1352.570923	498.438660	0.181546	0.000000	-1.573424	0.000000	-6.737569	-0.000000
1.641000	2.637074	1408.388184	-474.689636	0.164518	0.000000	-0.735524	0.000000	10.247885	0.000000	-7.310321	1373.314087	496.992157	0.182929	0.000000	-1.572712	0.000000	-5.889971	0.000000
1.642000	5.055561	1399.257568	-475.012329	0.165454	0.000000	-0.732796	0.000000	9.695357	-0.000000	-4.898431	1361.662964	497.473877	0.181645	0.000000	-1.573406	0.000000	-6.625197	-0.000000
1.643000	4.368740	1399.094238	-474.689880	0.165522	0.000000	-0.732192	0.000000	9.744384	0.000000	-5.180039	1359.915283	496.749207	0.181850	0.000000	-1.573757	0.000000	-6.441566	-0.000000
1.644000	4.770805	1409.685547	-473.400146	0.165110	0.000000	-0.733056	0.000000	9.890485	0.000000	-4.778472	1357.197144	497.475647	0.181617	0.000000	-1.572970	0.000000	-6.883160	-0.000000
1.645000	4.164474	1390.430298	-475.216217	0.165386	0.000000	-0.731873	0.000000	10.064758	-0.000000	-4.334389	1364.534424	498.318604	0.181451	0.000000	-1.573544	0.000000	-6.651425	-0.000000
1.646000	4.364555	1403.413818	-474.811066	0.165559	0.000000	-0.733299	0.000000	9.928979	0.000000	-5.585469	1360.398071	499.403229	0.181405	0.000000	-1.574371	0.000000	-7.091627	-0.000000
1.647000	4.325451	1393.322021	-473.684570	0.165297	0.000000	-0.732163	-0.000000	10.017810	0.000000	-4.938601	1354.176392	497.274323	0.181922	0.000000	-1.573494	0.000000	-6.617798	-0.000000
1.648000	4.202435	1400.681641	-475.982635	0.165611	0.000000	-0.732909	0.000000	10.130375	0.000000	-4.014817	1372.026367	498.199280	0.182749	0.000000	-1.573651	0.000000	-6.379788	-0.000000
1.649000	4.286350	1399.887329	-473.966187	0.165279	0.000000	-0.733122	-0.000000	9.976667	0.000000	-5.422719	1353.213501	497.676453	0.181751	0.000000	-1.573472	0.000000	-6.881175	0.000000
1.650000	3.758602	1400.676270	-474.209045	0.165979	0.000000	-0.732847	-0.000000	9.888440	0.000000	-3.973680	1357.684204	498.359619	0.181891	0.000000	-1.573741	0.000000	-6.655676	-0.000000
1.651000	4.937492	1399.393433	-474.451904	0.165989	0.000000	-0.732959	0.000000	9.452440	0.000000	-5.301656	1362.755249	501.097473	0.181155	0.000000	-1.572138	0.000000	-7.454352	-0.000000
1.652000	3.555859	1395.079590	-474.531311	0.165328	0.000000	-0.732819	0.000000	10.270828	-0.000000	-4.697717	1344.912598	497.435699	0.180696	0.000000	-1.573954	0.000000	-7.332440	-0.000000
1.653000	4.566921	1400.672607	-473.966431	0.165843	0.000000	-0.733342	0.000000	9.772464	0.000000	-5.181695	1343.009644	497.797882	0.182476	0.000000	-1.573160	0.000000	-6.628847	-0.000000
1.654000	3.680397	1384.953613	-472.472595	0.165872	0.000000	-0.731964	0.000000	9.598507	0.000000	-2.080284	1363.586914	499.244812	0.181965	0.000000	-1.574530	0.000000	-6.332636	-0.000000
1.655000	3.963631	1406.579468	-474.330475	0.166689	0.000000	-0.735254	0.000000	9.429728	0.000000	-4.578723	1356.882812	498.962952	0.182098	0.000000	-1.573775	0.000000	-6.779416	0.000000
1.656000	3.965153	1393.617188	-472.472107	0.165981	0.000000	-0.732256	0.000000	9.402290	0.000000	-4.456831	1355.608887	498.521729	0.181606	0.000000	-1.572618	0.000000	-6.969398	-0.000000
1.657000	3.037621	1392.507446	-474.288666	0.165963	0.000000	-0.731729	0.000000	9.701140	0.000000	-3.615457	1354.649292	498.279724	0.181962	0.000000	-1.573606	0.000000	-7.105903	-0.000000
1.658000	3.476509	1404.021240	-474.774170	0.166583	0.000000	-0.733063	0.000000	9.682640	0.000000	-4.257082	1359.440552	497.957764	0.182312	0.000000	-1.573802	0.000000	-6.684141	-0.000000
1.659000	3.683437	1393.788452	-474.291016	0.165851	0.000000	-0.732179	0.000000	9.778912	-0.000000	-5.665121	1352.746460	499.645691	0.182174	0.000000	-1.573772	0.000000	-6.722525	0.000000
1.660000	4.123848	1407.275146	-474.084778	0.165207	0.000000	-0.732829	0.000000	9.984727	0.000000	-4.055540	1357.691406	498.400940	0.183099	0.000000	-1.574207	0.000000	-6.322585	-0.000000
1.661000	3.398682	1387.384888	-474.854004	0.165325	0.000000	-0.731010	0.000000	10.132066	0.000000	-4.135743	1359.277466	496.387207	0.182075	0.000000	-1.573560	0.000000	-6.486179	-0.000000
1.662000	0.699242	1384.832520	-476.100098	0.165306	0.000000	-0.729963	0.000000	10.173195	0.000000	-3.251439	1352.426025	499.245483	0.182143	0.000000	-1.572526	0.000000	-6.850277	-0.000000
1.663000	3.437786	1396.343628	-474.692444	0.165960	0.000000	-0.732491	0.000000	9.859984	0.000000	-3.814516	1359.279053	499.687439	0.182086	0.000000	-1.573772	0.000000	-6.855216	-0.000000
1.664000	4.043739	1398.581787	-474.453064	0.165898	0.000000	-0.733334	0.000000	9.891301	0.000000	-4.779713	1352.743042	500.730103	0.181894	0.000000	-1.573923	0.000000	-6.698227	0.000000
1.665000	3.277565	1392.341553	-474.210449	0.165678	0.000000	-0.732282	0.000000	9.999756	0.000000	-3.410742	1350.976440	499.125366	0.182813	0.000000	-1.572942	0.000000	-6.383762	-0.000000
1.666000	4.167900	1393.635620	-474.571960	0.165520	0.000000	-0.732053	0.000000	9.842891	0.000000	-3.934339	1356.897339	499.366333	0.183051	0.000000	-1.574416	0.000000	-6.329962	0.000000
1.667000	3.399063	1397.140625	-474.976624	0.166267	0.000000	-0.732493	0.000000	9.750548	0.000000	-3.853997	1356.576904	499.487061	0.182429	0.000000	-1.574378	0.000000	-6.658973	-0.000000
1.668000	4.082081	1396.042847	-474.291016	0.165260	0.000000	-0.732802	0.000000	10.229515	0.000000	-4.015645	1353.070312	498.682556	0.182943	0.000000	-1.574877	0.000000	-6.460469	-0.000000
1.669000	4.082462	1389.292236	-477.037476	0.165894	0.000000	-0.731577	0.000000	10.301620	0.000000	-3.855100	1358.165161	498.884247	0.182281	0.000000	-1.573867	0.000000	-6.882716	-0.000000
1.670000	4.124989	1394.593262	-474.894409	0.165707	0.000000	-0.731917	0.000000	9.887614	0.000000	-4.056229	1369.145996	498.320374	0.182041	0.000000	-1.572876	0.000000	-6.914007	0.000000
1.671000	4.326595	1398.094360	-474.331665	0.166404	0.000000	-0.732829	0.000000	9.575834	0.000000	-4.417489	1351.471191	499.326416	0.181833	0.000000	-1.574212	0.000000	-7.019323	-0.000000
1.672000	4.930264	1388.361450	-474.451416	0.165154	0.000000	-0.732002	0.000000	10.133348	0.000000	-4.700063	1349.238159	499.528137	0.182077	0.000000	-1.574153	0.000000	-7.083888	-0.000000
1.673000	4.045258	1396.997681	-474.533661	0.165557	0.000000	-0.732572	0.000000	9.988087	0.000000	-3.413775	1360.731201	499.487488	0.183287	0.000000	-1.573414	0.000000	-6.523685	-0.000000
1.674000	3.562702	1385.620239	-473.287354	0.166021	0.000000	-0.729443	0.000000	9.793151	0.000000	-4.858813	1342.379395	499.447632	0.181650	0.000000	-1.575502	0.000000	-7.043373	-0.000000
1.675000	4.046402	1400.026733	-475.459778	0.166220	0.000000	-0.732484	0.000000	9.641194	0.000000	-4.136294	1362.632446	499.246613	0.182975	0.000000	-1.574894	0.000000	-6.549470	-0.000000
1.676000	6.518448	1398.759155	-474.975464	0.165561	0.000000	-0.732984	-0.000000	9.201933	0.000000	-4.016749	1353.708740	499.447754	0.182952	0.000000	-1.574353	0.000000	-6.697533	-0.000000
1.677000	3.841755	1389.296021	-475.659668	0.166106	0.000000	-0.730560	0.000000	9.775712	0.000000	-4.338251	1363.265869	499.166107	0.182303	0.000000	-1.574171	0.000000	-6.970580	-0.000000
1.678000	4.488716	1400.840088	-475.458374	0.165857	0.000000	-0.732066	0.000000	9.775890	0.000000	-3.935304	1356.102051	499.649506	0.183111	0.000000	-1.574978	0.000000	-6.569312	-0.000000
1.679000	3.801128	1400.827271	-475.743042	0.166162	0.000000	-0.732487	0.000000	9.891005	0.000000	-4.296701	1361.039307	499.407806	0.182500	0.000000	-1.573875	0.000000	-6.758500	-0.000000
1.680000	3.348167	1401.795044	-475.540131	0.165759	0.000000	-0.733066	-0.000000	10.447945	0.000000	-4.861021	1355.776611	498.967102	0.182538	0.000000	-1.574594	0.000000	-7.027911	-0.000000
1.681000	4.369499	1402.275757	-476.259827	0.165656	0.000000	-0.733589	0.000000	9.665500	-0.000000	-4.860883	1359.448608	499.166412	0.182938	0.000000	-1.573758	0.000000	-6.652513	-0.000000
1.682000	4.812191	1398.281372	-476.143524	0.165641	0.000000	-0.731975	0.000000	9.855123	0.000000	-2.973418	1345.574341	499.046448	0.182302	0.000000	-1.575051	0.000000	-7.375116	-0.000000
1.683000	1.668541	1402.744751	-477.671204	0.166327	0.000000	-0.732536	0.000000	9.613226	-0.000000	-3.052655	1357.682617	498.966980	0.182598	0.000000	-1.575974	0.000000	-7.175011	-0.000000
1.684000	4.893063	1399.069580	-475.578644	0.165842	0.000000	-0.732361	0.000000	9.687876	0.000000	-3.492186	1359.288818	497.560852	0.183392	0.000000	-1.574407	0.000000	-6.532938	-0.000000
1.685000	4.164093	1399.394409	-475.902100	0.165551	0.000000	-0.733330	0.000000	10.075911	0.000000	-4.980980	1361.358276	498.605103	0.182846	0.000000	-1.573890	0.000000	-6.778161	-0.000000
1.686000	4.651974	1386.446899	-476.466736	0.164734	0.000000	-0.729043	0.000000	10.289093	0.000000	-4.257358	1371.386841	499.609955	0.182761	0.000000	-1.573347	0.000000	-6.833497	-0.000000
1.687000	4.650452	1398.397095	-476.590027	0.166890	0.000000	-0.732858	0.000000	9.450448	0.000000	-2.806527	1351.638672	501.417664	0.182897	0.000000	-1.574436	0.000000	-6.295124	-0.000000
1.688000	4.243820	1404.823853	-476.828918	0.166505	0.000000	-0.732899	0.000000	9.699347	0.000000	-4.579688	1355.943848	499.208130	0.182847	0.000000	-1.574695	0.000000	-6.884274	-0.000000
1.689000	4.450748	1401.637695	-477.275879	0.165998	0.000000	-0.732487	0.000000	9.873156	0.000000	-5.022255	1361.677490	499.088074	0.183718	0.000000	-1.575734	0.000000	-6.521803	-0.000000
